<?xml version="1.0" encoding="UTF-8"?>
<svg width="199px" height="199px" viewBox="0 0 199 199" version="1.1" xmlns="http://www.w3.org/2000/svg" xmlns:xlink="http://www.w3.org/1999/xlink">
    <title>yao-avatar</title>
    <g id="Page-1" stroke="none" stroke-width="1" fill="none" fill-rule="evenodd">
        <g id="flow_icon" fill-rule="nonzero">
            <g id="yao-avatar">
                <rect id="Rectangle" fill="#000000" opacity="0" x="0" y="0" width="199" height="199"></rect>
                <path d="M166.640414,169.584125 C157.438155,178.847231 146.729575,186.125386 134.815937,191.198039 C123.915643,195.829592 112.41282,198.448625 100.553957,199 C99.5953886,198.724312 98.5820447,198.5589 97.541313,198.5589 C73.0841207,198.365918 53.3649956,178.185581 53.5539568,153.566671 C53.6388724,142.925127 57.6648603,132.504133 64.6487171,124.50919 C71.6873494,116.431541 81.2456475,111.524301 91.598188,109.952881 C93.5153251,109.677193 95.4598501,109.484212 97.4043746,109.429074 C102.251993,109.291231 107.126999,109.098249 111.892454,108.078205 C117.808192,106.810041 123.559603,104.714815 128.927587,101.875232 C134.733774,98.7875301 140.07437,94.8451965 144.757663,90.2136434 C157.465543,77.6147167 164.558951,60.7977687 164.695889,42.8229322 C164.750664,35.7928962 163.737321,28.9007047 161.73802,22.3669065 C163.436056,23.8556199 165.079316,25.3994711 166.667802,26.9984595 C175.87006,36.2615653 183.100406,47.0409535 188.139738,59.0333675 C193.343396,71.4393129 196,84.6447523 196,98.2637238 C196,111.882695 193.343396,125.088134 188.139738,137.49408 C183.04563,149.541631 175.842672,160.321019 166.640414,169.584125 L166.640414,169.584125 Z" id="Path" fill="#6694FF"></path>
                <path d="M11.4920543,140.554068 C6.33212273,128.189561 3.69784173,115.02823 3.69784173,101.45475 C3.69784173,87.8812687 6.33212273,74.7199381 11.4920543,62.3554312 C16.4890403,50.4030745 23.6586296,39.6596917 32.783561,30.4275266 C41.9084927,21.1953614 52.5270887,13.9415171 64.3406161,8.88580779 C76.5071918,3.66523825 89.4613355,1.02747645 102.822843,1 C103.447466,1.10990658 104.072089,1.16485987 104.751028,1.16485987 L105.375651,1.16485987 C117.107705,1.24729 128.133665,5.97327954 136.362397,14.4360975 C144.591131,22.8989154 149.072124,34.1094017 148.992806,45.9793286 C148.909178,56.2830843 145.215754,66.3670268 138.64363,74.2528342 C132.15298,82.0287354 123.055206,87.4416416 113.169863,89.3375326 C107.330993,90.4366 101.410651,89.6672532 95.5989382,90.4915533 C80.0648286,92.7446413 65.752808,100.548019 55.3514721,112.527852 C44.8143489,124.617593 38.9483214,140.169395 38.8125336,156.298207 C38.7310612,165.200652 40.3876707,173.883284 43.5651025,181.906475 C39.7902052,179.0489 36.178253,175.889081 32.8107187,172.454496 C23.6586296,163.249807 16.4890403,152.506425 11.4920543,140.554068 Z" id="Path" fill="#3370FF"></path>
            </g>
        </g>
    </g>
</svg>